<?xml version="1.0" encoding="UTF-8" standalone="no"?>
<!-- Created with Inkscape (http://www.inkscape.org/) -->

<svg
   width="17.905685mm"
   height="22.142742mm"
   viewBox="0 0 17.905685 22.142742"
   version="1.1"
   id="svg5"
   xml:space="preserve"
   inkscape:version="1.2 (dc2aedaf03, 2022-05-15)"
   sodipodi:docname="brush.svg"
   xmlns:inkscape="http://www.inkscape.org/namespaces/inkscape"
   xmlns:sodipodi="http://sodipodi.sourceforge.net/DTD/sodipodi-0.dtd"
   xmlns="http://www.w3.org/2000/svg"
   xmlns:svg="http://www.w3.org/2000/svg"><sodipodi:namedview
     id="namedview7"
     pagecolor="#ffffff"
     bordercolor="#000000"
     borderopacity="0.25"
     inkscape:showpageshadow="2"
     inkscape:pageopacity="0.0"
     inkscape:pagecheckerboard="0"
     inkscape:deskcolor="#d1d1d1"
     inkscape:document-units="mm"
     showgrid="false"
     inkscape:zoom="0.73851712"
     inkscape:cx="-201.75565"
     inkscape:cy="-227.48288"
     inkscape:window-width="1920"
     inkscape:window-height="1009"
     inkscape:window-x="-8"
     inkscape:window-y="-8"
     inkscape:window-maximized="1"
     inkscape:current-layer="layer1" /><defs
     id="defs2"><linearGradient
       x2="1"
       y1="0"
       x1="0"
       id="imagebot_31"
       y2="1"><stop
         offset="0"
         stop-opacity="0.99219"
         stop-color="#0c0800"
         id="stop2033" /><stop
         offset="0.5"
         stop-opacity="0.98828"
         stop-color="#fc9d2f"
         id="stop2035" /><stop
         offset="1"
         stop-opacity="0.99219"
         stop-color="#000000"
         id="stop2037" /></linearGradient><linearGradient
       x2="1"
       y1="0.015629999"
       x1="0"
       id="imagebot_36"
       y2="0.875"><stop
         offset="0"
         stop-color="#000000"
         id="stop2040" /><stop
         offset="0.48828"
         stop-opacity="0.98828"
         stop-color="#c9c9c9"
         id="stop2042" /><stop
         offset="1"
         stop-opacity="0.99609"
         stop-color="#000000"
         id="stop2044" /></linearGradient><linearGradient
       x2="1873.235"
       y1="0.044370074"
       x1="802.43091"
       id="imagebot_31-0"
       y2="1070.8484"
       gradientTransform="scale(0.79921518,1.2512275)"
       gradientUnits="userSpaceOnUse"><stop
         offset="0"
         stop-opacity="0.99219"
         stop-color="#0c0800"
         id="stop2" /><stop
         offset="0.5"
         stop-opacity="0.98828"
         stop-color="#fc9d2f"
         id="stop4" /><stop
         offset="1"
         stop-opacity="0.99219"
         stop-color="#000000"
         id="stop6" /></linearGradient><linearGradient
       x2="1902.7524"
       y1="25.726938"
       x1="581.36371"
       id="imagebot_36-9"
       y2="1161.2889"
       gradientTransform="scale(0.77430484,1.291481)"
       gradientUnits="userSpaceOnUse"><stop
         offset="0"
         stop-color="#000000"
         id="stop9" /><stop
         offset="0.48828"
         stop-opacity="0.98828"
         stop-color="#c9c9c9"
         id="stop11" /><stop
         offset="1"
         stop-opacity="0.99609"
         stop-color="#000000"
         id="stop13" /></linearGradient><linearGradient
       id="linearGradient7803"
       y2="414.35999"
       gradientUnits="userSpaceOnUse"
       x2="353.75"
       gradientTransform="matrix(2.5278,2.5256,-2.5278,2.5256,565.91,-1456.1)"
       y1="414.35999"
       x1="335.72"><stop
         id="stop3708"
         stop-color="#fff"
         stop-opacity=".82653"
         offset="0" /><stop
         id="stop3710"
         stop-color="#fff"
         stop-opacity="0"
         offset="1" /></linearGradient><linearGradient
       id="linearGradient7812"
       y2="437.79001"
       gradientUnits="userSpaceOnUse"
       x2="365.75"
       gradientTransform="matrix(2.5278,2.5256,-2.5278,2.5256,565.91,-1456.1)"
       y1="437.79001"
       x1="331.72"><stop
         id="stop3687"
         stop-color="#fff"
         offset="0" /><stop
         id="stop3711"
         stop-color="#ffdd7c"
         offset="1" /></linearGradient><linearGradient
       id="linearGradient7819"
       y2="318.69"
       gradientUnits="userSpaceOnUse"
       x2="185.48"
       gradientTransform="matrix(2.3454,2.3434,-2.3454,2.3434,888.99,-800.77)"
       y1="318.69"
       x1="148.7"><stop
         id="stop4256"
         stop-color="#ff9191"
         offset="0" /><stop
         id="stop4258"
         stop-color="#b55858"
         offset="1" /></linearGradient></defs><g
     inkscape:label="Στρώση 1"
     inkscape:groupmode="layer"
     id="layer1"
     transform="translate(-158.28004,-8.1316342)"><g
       id="imagebot_2"
       label="Camada 1"
       transform="matrix(0.01462181,0.00238863,0.00192437,0.01225261,154.26793,4.5871667)"><path
         stroke-width="0"
         label="Camada 1"
         fill="#ffd4aa"
         d="m 414.28716,2012.5523 c -0.71682,-0.044 -1.25619,-0.019 -1.97788,-0.065 -6.98439,-0.4504 -14.21705,-1.0188 -21.52594,-1.7142 -7.30889,-0.6954 -14.69283,-1.5164 -22.08634,-2.5053 -7.39351,-0.9889 -14.78216,-2.1302 -22.0204,-3.4613 -7.23825,-1.3311 -14.35318,-2.8602 -21.19629,-4.5821 -6.84311,-1.7219 -13.40589,-3.6407 -19.61399,-5.8018 -3.10405,-1.0805 -6.132,-2.2288 -9.03232,-3.4283 -2.90032,-1.1995 -5.67346,-2.4665 -8.34007,-3.7909 -2.6666,-1.3245 -5.21193,-2.698 -7.61484,-4.1536 -2.40291,-1.4555 -4.6815,-2.9894 -6.79072,-4.5821 -2.10923,-1.5926 -4.04919,-3.2418 -5.83475,-4.9776 -1.78556,-1.7359 -3.41391,-3.5541 -4.84581,-5.4392 l -3.72501,-5.9006 c -1.04826,-2.0406 -1.90364,-4.1603 -2.53828,-6.3623 -0.63464,-2.2019 -1.06162,-4.4872 -1.25266,-6.8566 -0.19103,-2.3695 -0.1507,-4.8081 0.13186,-7.3511 0.28256,-2.5431 0.40094,-5.0509 0.32965,-7.483 -0.0713,-2.4321 -0.32236,-4.7971 -0.72522,-7.1204 -0.40287,-2.3234 -0.96902,-4.5741 -1.6812,-6.7907 -0.71219,-2.2166 -1.572,-4.3823 -2.57125,-6.4941 -0.99924,-2.1118 -2.13132,-4.1883 -3.39536,-6.1974 -1.26404,-2.009 -2.64696,-3.9593 -4.15355,-5.8676 -1.50659,-1.9084 -3.1519,-3.7615 -4.87877,-5.5711 -1.72688,-1.8096 -3.54723,-3.5943 -5.47214,-5.3073 -1.92491,-1.7129 -3.93187,-3.3593 -6.03254,-4.9777 -2.10066,-1.6183 -4.30579,-3.1882 -6.55997,-4.7139 -0.93592,-0.6335 -2.00715,-1.1623 -2.96682,-1.7802 -34.00937,75.5708 -88.22625,122.3766 -199.66708,143.1328 -18.25076,3.3992 -12.22723,25.6465 0,25.6464 131.57972,0 282.9466,-0.6181 396.03769,-35.5029 z"
         id="imagebot_6" /><path
         stroke-width="0"
         label="Camada 1"
         fill="#ceae7d"
         d="m 411.18848,1662.6651 c -83.18552,0 -152.36721,59.992 -166.6035,139.078 -7.67155,28.6306 -16.2553,54.3944 -26.66843,77.5329 0.95967,0.6178 2.0309,1.1467 2.96682,1.7802 2.25418,1.5257 4.45931,3.0955 6.55997,4.7139 2.10067,1.6184 4.10763,3.2647 6.03254,4.9776 1.92491,1.713 3.74526,3.4978 5.47214,5.3074 1.72687,1.8096 3.37218,3.6627 4.87877,5.5711 1.50659,1.9082 2.88951,3.8586 4.15355,5.8676 1.26404,2.0091 2.39612,4.0856 3.39536,6.1973 0.99925,2.1119 1.85906,4.2775 2.57125,6.4941 0.71218,2.2166 1.27833,4.4674 1.6812,6.7908 0.40286,2.3233 0.65393,4.6882 0.72522,7.1203 0.0713,2.4321 -0.047,4.94 -0.32965,7.4831 -0.28256,2.5429 -0.32289,4.9816 -0.13186,7.351 0.19104,2.3695 0.61802,4.6548 1.25266,6.8567 0.63464,2.2019 1.49002,4.3217 2.53828,6.3622 1.04827,2.0405 2.29311,4.0155 3.72501,5.9007 1.4319,1.8851 3.06025,3.7033 4.84581,5.4392 1.78556,1.7358 3.72552,3.3849 5.83475,4.9776 2.10922,1.5926 4.38781,3.1265 6.79072,4.582 2.40291,1.4556 4.94824,2.8292 7.61484,4.1537 2.66661,1.3244 5.43975,2.5914 8.34007,3.7909 2.90032,1.1995 5.92827,2.3478 9.03232,3.4283 6.2081,2.1611 12.77088,4.0799 19.61399,5.8018 6.84311,1.7218 13.95804,3.251 21.19629,4.582 7.23824,1.3312 14.62689,2.4724 22.0204,3.4614 7.39351,0.9889 14.77745,1.8099 22.08634,2.5053 7.30889,0.6953 14.54155,1.2638 21.52594,1.7141 0.72169,0.046 1.26106,0.022 1.97788,0.065 65.2348,-20.1227 117.77927,-51.5852 146.33027,-101.0367 12.64821,-23.715 19.81172,-50.8231 19.81172,-79.5768 0,-93.4887 -75.75181,-169.2736 -169.24067,-169.2736 z"
         id="imagebot_5" /><title
         id="title21">Camada 1</title><path
         id="imagebot_27"
         label="Camada 1"
         fill="url(#imagebot_31)"
         d="m 1484.5185,0.05846 c -3.5363,0.07747 -7.5642,1.68641 -11.208,6.49404 -5.172,7.2107 -678.66472,942.29051 -831.99553,1218.4405 3.65608,1.1921 7.39949,2.4118 11.17498,3.7581 23.66326,8.4371 49.81812,19.9665 77.73072,35.6677 33.19675,18.6739 68.89977,43.2486 105.94848,75.4562 C 1004.5329,1066.814 1491.8777,28.28664 1495.6606,20.26581 c 3.4974,-8.98191 0.051,-15.43845 -3.5273,-17.93278 -0.2237,-0.15587 -0.4656,-0.30923 -0.7251,-0.46151 -1.703,-0.99966 -4.1392,-1.87331 -6.8897,-1.81306 z"
         style="fill:url(#imagebot_31-0)" /><path
         label="Camada 1"
         fill="url(#imagebot_36)"
         id="imagebot_7"
         d="M 1473.3105,6.5525 Z M 622.78872,1260.3972 c -2.59509,5.4105 -4.79871,10.346 -6.59294,14.7351 -56.9809,139.3954 -142.40275,306.7447 -166.04305,370.5561 45.31064,7.007 84.67461,31.9747 110.59656,67.4127 44.1366,-51.556 148.40246,-206.9794 241.92775,-323.7461 3.56472,-4.4507 7.53483,-9.8233 11.83426,-16.0209 -33.62049,-29.7278 -65.88115,-52.5599 -95.79525,-70.0499 -28.94584,-16.9239 -55.70072,-28.8711 -79.4779,-37.3489 -5.68312,-2.0264 -11.14449,-3.8889 -16.44943,-5.5381 z"
         style="fill:url(#imagebot_36-9)" /></g></g></svg>
