<?xml version="1.0" encoding="UTF-8" standalone="no"?>
<!-- Created with Inkscape (http://www.inkscape.org/) -->

<svg
   width="15.767292mm"
   height="21.98357mm"
   viewBox="0 0 15.767292 21.98357"
   version="1.1"
   id="svg5"
   xml:space="preserve"
   inkscape:version="1.2 (dc2aedaf03, 2022-05-15)"
   sodipodi:docname="pencil.svg"
   xmlns:inkscape="http://www.inkscape.org/namespaces/inkscape"
   xmlns:sodipodi="http://sodipodi.sourceforge.net/DTD/sodipodi-0.dtd"
   xmlns="http://www.w3.org/2000/svg"
   xmlns:svg="http://www.w3.org/2000/svg"><sodipodi:namedview
     id="namedview7"
     pagecolor="#ffffff"
     bordercolor="#000000"
     borderopacity="0.25"
     inkscape:showpageshadow="2"
     inkscape:pageopacity="0.0"
     inkscape:pagecheckerboard="0"
     inkscape:deskcolor="#d1d1d1"
     inkscape:document-units="mm"
     showgrid="false"
     inkscape:zoom="0.73851712"
     inkscape:cx="-139.46867"
     inkscape:cy="-226.12881"
     inkscape:window-width="1920"
     inkscape:window-height="1009"
     inkscape:window-x="-8"
     inkscape:window-y="-8"
     inkscape:window-maximized="1"
     inkscape:current-layer="layer1" /><defs
     id="defs2"><linearGradient
       x2="1"
       y1="0"
       x1="0"
       id="imagebot_31"
       y2="1"><stop
         offset="0"
         stop-opacity="0.99219"
         stop-color="#0c0800"
         id="stop2033" /><stop
         offset="0.5"
         stop-opacity="0.98828"
         stop-color="#fc9d2f"
         id="stop2035" /><stop
         offset="1"
         stop-opacity="0.99219"
         stop-color="#000000"
         id="stop2037" /></linearGradient><linearGradient
       x2="1"
       y1="0.015629999"
       x1="0"
       id="imagebot_36"
       y2="0.875"><stop
         offset="0"
         stop-color="#000000"
         id="stop2040" /><stop
         offset="0.48828"
         stop-opacity="0.98828"
         stop-color="#c9c9c9"
         id="stop2042" /><stop
         offset="1"
         stop-opacity="0.99609"
         stop-color="#000000"
         id="stop2044" /></linearGradient><linearGradient
       x2="1873.235"
       y1="0.044370074"
       x1="802.43091"
       id="imagebot_31-0"
       y2="1070.8484"
       gradientTransform="scale(0.79921518,1.2512275)"
       gradientUnits="userSpaceOnUse"><stop
         offset="0"
         stop-opacity="0.99219"
         stop-color="#0c0800"
         id="stop2" /><stop
         offset="0.5"
         stop-opacity="0.98828"
         stop-color="#fc9d2f"
         id="stop4" /><stop
         offset="1"
         stop-opacity="0.99219"
         stop-color="#000000"
         id="stop6" /></linearGradient><linearGradient
       x2="1902.7524"
       y1="25.726938"
       x1="581.36371"
       id="imagebot_36-9"
       y2="1161.2889"
       gradientTransform="scale(0.77430484,1.291481)"
       gradientUnits="userSpaceOnUse"><stop
         offset="0"
         stop-color="#000000"
         id="stop9" /><stop
         offset="0.48828"
         stop-opacity="0.98828"
         stop-color="#c9c9c9"
         id="stop11" /><stop
         offset="1"
         stop-opacity="0.99609"
         stop-color="#000000"
         id="stop13" /></linearGradient><linearGradient
       id="linearGradient7803"
       y2="414.35999"
       gradientUnits="userSpaceOnUse"
       x2="353.75"
       gradientTransform="matrix(2.5278,2.5256,-2.5278,2.5256,565.91,-1456.1)"
       y1="414.35999"
       x1="335.72"><stop
         id="stop3708"
         stop-color="#fff"
         stop-opacity=".82653"
         offset="0" /><stop
         id="stop3710"
         stop-color="#fff"
         stop-opacity="0"
         offset="1" /></linearGradient><linearGradient
       id="linearGradient7812"
       y2="437.79001"
       gradientUnits="userSpaceOnUse"
       x2="365.75"
       gradientTransform="matrix(2.5278,2.5256,-2.5278,2.5256,565.91,-1456.1)"
       y1="437.79001"
       x1="331.72"><stop
         id="stop3687"
         stop-color="#fff"
         offset="0" /><stop
         id="stop3711"
         stop-color="#ffdd7c"
         offset="1" /></linearGradient><linearGradient
       id="linearGradient7819"
       y2="318.69"
       gradientUnits="userSpaceOnUse"
       x2="185.48"
       gradientTransform="matrix(2.3454,2.3434,-2.3454,2.3434,888.99,-800.77)"
       y1="318.69"
       x1="148.7"><stop
         id="stop4256"
         stop-color="#ff9191"
         offset="0" /><stop
         id="stop4258"
         stop-color="#b55858"
         offset="1" /></linearGradient></defs><g
     inkscape:label="Στρώση 1"
     inkscape:groupmode="layer"
     id="layer1"
     transform="translate(-141.87028,-7.8461402)"><g
       id="g7826"
       transform="matrix(0.03924626,-0.01638429,-0.00165863,0.04339252,201.03055,-52.773138)"><g
         id="g514"
         transform="translate(-1659.4406,694.43579)"><path
           id="path4217"
           d="m 567.38,303.44 c -23.74,-23.72 -49.66,-36.33 -57.82,-28.18 -0.55,0.55 -1.03,1.17 -1.4,1.88 l -51.66,51.62 7.8,7.79 30.34,30.31 9.74,9.74 38.14,38.11 53.37,-53.32 c -0.03,-0.1 -0.03,-0.21 -0.06,-0.31 l -0.06,-0.06 0.06,-0.06 c 7.68,-8.4 -4.93,-34.03 -28.45,-57.52 z"
           style="color:#000000;fill:url(#linearGradient7819)"
           fill="url(#linearGradient7819)" /><path
           id="path4235"
           d="m 470.45,314.82 -48.31,48.27 -5.54,5.54 7.79,7.79 78.23,78.16 53.85,-53.81 -43.01,-42.98 -35.21,-35.18 z"
           style="color:#000000"
           fill="#e3dedb" /><path
           id="path4143"
           style="color:#000000"
           d="m 538.99,418.24 -86.02,-85.95 -3.9,3.9 -1.95,1.94 86.02,85.95 1.95,-1.95 z" /><path
           id="path4147"
           style="color:#000000"
           d="m 548.74,408.5 -86.03,-85.95 -3.9,3.9 -1.94,1.95 86.02,85.94 1.95,-1.95 z" /><path
           id="path4163"
           style="color:#000000"
           d="m 529.24,427.98 -86.02,-85.95 -3.9,3.9 -1.95,1.94 86.02,85.95 1.95,-1.95 z" /><path
           id="path4106"
           d="m 429.21,356.03 -184.9,184.74 -34.97,120.88 10.96,-3.16 110.03,-31.77 184.9,-184.74 -16.69,-16.68 -5.85,-5.84 -15.6,-15.59 -1.95,-1.94 -5.85,-5.85 -1.95,-1.95 -15.59,-15.58 -5.85,-5.84 -8.9,-8.89 z"
           style="color:#000000;fill:url(#linearGradient7812)"
           fill="url(#linearGradient7812)" /><path
           id="path3990"
           style="color:#000000"
           d="m 256.88,647.93 -16.9,-16.89 -16.9,-16.89 -13.74,47.5 z" /><path
           id="path4089"
           d="m 595.83,361.08 c 0.03,0.1 0.03,0.21 0.06,0.31 l 0.12,-0.13 z"
           style="color:#000000"
           fill="#ff9191" /><path
           id="path3424"
           d="m 429.21,356.03 -184.9,184.74 41.73,1.28 1.28,41.69 41.73,1.28 1.28,41.7 184.9,-184.74 -21.51,-21.49 -21.5,-21.49 -21.51,-21.48 z"
           style="color:#000000"
           fill="#ffc700" /><path
           id="path3426"
           d="m 429.21,356.03 -184.9,184.74 41.73,1.28 164.67,-164.53 z"
           style="color:#000000"
           fill="#ffda00" /><path
           id="path3428"
           d="m 329.05,585.02 1.28,41.7 184.9,-184.74 -21.51,-21.49 z"
           style="color:#000000"
           fill="#ff8a00" /><path
           id="path3430"
           d="m 287.32,583.74 41.73,1.28 L 493.72,420.49 472.22,399 Z"
           style="color:#000000"
           fill="#ffa100" /><path
           id="path3680"
           d="m 491.1,336.97 c -1.55,-1.55 -3.37,-2.77 -5.29,-3.55 -1.92,-0.78 -3.96,-1.1 -6,-1.1 -2.05,0 -4.09,0.32 -6.01,1.1 -1.92,0.78 -3.73,2 -5.29,3.55 l -29.23,29.2 -173.55,173.4 c -0.54,0.54 -0.74,1.24 -1.18,1.82 l 21.48,0.63 1.27,41.67 24.64,0.79 172.92,-172.77 29.23,-29.2 c 1.56,-1.55 2.78,-3.37 3.56,-5.29 0.77,-1.92 1.1,-3.95 1.1,-5.99 0,-2.05 -0.33,-4.08 -1.1,-6 -0.78,-1.92 -2,-3.73 -3.56,-5.29 z"
           style="color:#000000;fill:url(#linearGradient7803)"
           fill="url(#linearGradient7803)" /><path
           id="path4288"
           opacity="0.8"
           d="m 239.98,631.04 -11.24,-11.23 -19.4,41.84 z"
           style="color:#000000"
           fill="#ffffff" /></g></g></g></svg>
